<?xml version="1.0" encoding="utf-8"?>
<!-- Generator: Adobe Illustrator 24.1.2, SVG Export Plug-In . SVG Version: 6.00 Build 0)  -->
<svg version="1.1" id="Слой_1" xmlns="http://www.w3.org/2000/svg" xmlns:xlink="http://www.w3.org/1999/xlink" x="0px" y="0px"
	 viewBox="0 0 47 41" style="enable-background:new 0 0 47 41;" xml:space="preserve">
<style type="text/css">
	.st0{fill-rule:evenodd;clip-rule:evenodd;fill:black;}
</style>
<path class="st0" d="M45.87,17.55l-5.36,6.59c-0.25,0.31-0.65,0.31-0.9,0l-5.36-6.59C34,17.25,34.11,17,34.51,17h3.56
	c-0.03-0.17-0.06-0.33-0.09-0.5c0,0,0,0,0-0.01c-0.04-0.22-0.09-0.43-0.15-0.64c-0.72-2.88-2.29-5.44-4.41-7.38
	c-0.01-0.01-0.02-0.02-0.03-0.03c-0.13-0.12-0.26-0.23-0.4-0.35c-0.4-0.34-0.82-0.66-1.26-0.96c-0.01,0-0.01-0.01-0.02-0.01
	c-2.16-1.47-4.73-2.38-7.5-2.53c-0.04,0-0.07,0-0.11,0c-0.19-0.01-0.39-0.01-0.58-0.01c-0.05,0-0.11,0-0.16,0
	c-0.2,0-0.4,0.01-0.6,0.01c-0.07,0-0.14,0.01-0.2,0.01c-0.16,0.01-0.31,0.02-0.47,0.03c-0.06,0.01-0.12,0.01-0.18,0.02
	c-0.2,0.02-0.4,0.04-0.59,0.07c-0.06,0.01-0.13,0.02-0.19,0.03c-0.64,0.1-1.27,0.24-1.88,0.42c-0.09,0.03-0.19,0.06-0.28,0.09
	c-0.1,0.03-0.2,0.06-0.3,0.1c-0.15,0.05-0.3,0.1-0.45,0.16c-0.1,0.04-0.2,0.08-0.31,0.12c-0.11,0.04-0.22,0.09-0.34,0.14
	c-0.07,0.03-0.13,0.06-0.2,0.09c-0.23,0.1-0.46,0.21-0.68,0.33c-0.02,0.01-0.05,0.02-0.07,0.04c-0.11,0.06-0.22,0.12-0.34,0.18
	c-0.06,0.03-0.12,0.07-0.18,0.1c-0.1,0.06-0.21,0.12-0.31,0.18l0,0c-0.51,0.31-1.01,0.65-1.49,1.03C14.13,7.85,13.95,8,13.77,8.16
	c-0.05,0.04-0.1,0.08-0.15,0.13c-0.19,0.16-0.37,0.33-0.54,0.51c-0.49,0.48-0.96,0.99-1.38,1.54l-2.8-2.2
	c0.5-0.64,1.04-1.25,1.62-1.82c0,0,0.01-0.01,0.01-0.01c0.02-0.02,0.04-0.04,0.07-0.06c0.17-0.16,0.34-0.32,0.51-0.48
	c0.05-0.05,0.1-0.09,0.15-0.13c0.19-0.17,0.38-0.33,0.57-0.48c0.07-0.06,0.14-0.11,0.21-0.17c0.07-0.06,0.14-0.12,0.22-0.17l0,0
	c0.56-0.43,1.14-0.82,1.74-1.18l0,0c0.14-0.08,0.28-0.16,0.42-0.24c0.05-0.03,0.11-0.06,0.16-0.09c0.47-0.26,0.96-0.5,1.45-0.72
	c0.04-0.02,0.09-0.04,0.13-0.06c0.48-0.21,0.97-0.39,1.47-0.56c0.08-0.03,0.16-0.05,0.24-0.08c0.14-0.05,0.29-0.09,0.43-0.13
	c0.01,0,0.02,0,0.02-0.01l0,0c0.67-0.19,1.35-0.35,2.05-0.46l0,0c0.07-0.01,0.14-0.02,0.21-0.03c0.09-0.01,0.18-0.03,0.28-0.04
	c0.24-0.03,0.47-0.06,0.71-0.09c0.08-0.01,0.16-0.01,0.24-0.02c0.19-0.02,0.37-0.03,0.56-0.04c0.09-0.01,0.18-0.01,0.26-0.01
	C22.85,1.01,23.1,1.01,23.34,1c0.02,0,0.05,0,0.07,0c0.05,0,0.09,0,0.14,0c0.24,0,0.47,0.01,0.7,0.02c0.05,0,0.1,0,0.15,0.01
	c0.22,0.01,0.43,0.03,0.64,0.04l0,0c0.7,0.06,1.4,0.16,2.08,0.3v0c0.29,0.06,0.58,0.13,0.86,0.2c0.02,0,0.03,0.01,0.05,0.01
	c1.22,0.32,2.41,0.76,3.55,1.32l0,0.01c0.63,0.31,1.24,0.66,1.82,1.04l0.01-0.01c1.32,0.86,2.53,1.89,3.6,3.05L37,7.02
	c0.47,0.52,0.91,1.06,1.32,1.63l0.01-0.01c0.93,1.28,1.69,2.68,2.26,4.16l-0.01,0c0.25,0.65,0.47,1.32,0.65,2.01l0,0
	c0.08,0.31,0.15,0.61,0.21,0.92c0.01,0.03,0.01,0.05,0.02,0.08c0.06,0.28,0.11,0.56,0.15,0.84c0.01,0.04,0.01,0.08,0.02,0.11
	c0.01,0.08,0.02,0.16,0.03,0.23h3.94C46,17,46.12,17.25,45.87,17.55z M9.18,15.21l-3.41-1.03c0.45-1.52,1.1-2.97,1.92-4.32
	l3.04,1.87C10.07,12.82,9.55,13.99,9.18,15.21z"/>
<path class="st0" d="M0.13,24.45l5.36-6.59c0.25-0.31,0.65-0.31,0.9,0l5.36,6.59C12,24.75,11.89,25,11.49,25H7.94
	c0.03,0.17,0.06,0.33,0.09,0.5c0,0,0,0,0,0.01c0.04,0.22,0.09,0.43,0.15,0.64c0.72,2.88,2.29,5.44,4.41,7.38
	c0.01,0.01,0.02,0.02,0.03,0.03c0.13,0.12,0.26,0.23,0.4,0.35c0.4,0.34,0.82,0.66,1.26,0.96c0.01,0,0.01,0.01,0.02,0.01
	c2.16,1.47,4.73,2.38,7.5,2.53c0.04,0,0.07,0,0.11,0c0.19,0.01,0.39,0.01,0.58,0.01c0.05,0,0.11,0,0.16,0c0.2,0,0.4-0.01,0.6-0.01
	c0.07,0,0.14-0.01,0.2-0.01c0.16-0.01,0.31-0.02,0.47-0.03c0.06-0.01,0.12-0.01,0.18-0.02c0.2-0.02,0.4-0.04,0.59-0.07
	c0.06-0.01,0.13-0.02,0.19-0.03c0.64-0.1,1.27-0.24,1.88-0.42c0.09-0.03,0.19-0.06,0.28-0.09c0.1-0.03,0.2-0.06,0.3-0.1
	c0.15-0.05,0.3-0.1,0.44-0.16c0.1-0.04,0.2-0.08,0.31-0.12c0.11-0.04,0.23-0.09,0.34-0.14c0.07-0.03,0.13-0.06,0.2-0.09
	c0.23-0.1,0.46-0.21,0.68-0.33c0.02-0.01,0.05-0.02,0.07-0.04c0.11-0.06,0.22-0.12,0.34-0.18c0.06-0.03,0.12-0.07,0.18-0.1
	c0.1-0.06,0.21-0.12,0.31-0.18l0,0c0.51-0.31,1.01-0.65,1.49-1.03c0.19-0.14,0.37-0.29,0.55-0.45c0.05-0.04,0.1-0.08,0.15-0.13
	c0.19-0.16,0.37-0.33,0.54-0.51c0.49-0.48,0.96-0.99,1.38-1.54l2.8,2.2c-0.5,0.64-1.04,1.25-1.62,1.82c0,0-0.01,0.01-0.01,0.01
	c-0.02,0.02-0.04,0.04-0.07,0.06c-0.17,0.16-0.34,0.32-0.51,0.48c-0.05,0.05-0.1,0.09-0.15,0.13c-0.19,0.17-0.38,0.33-0.57,0.48
	c-0.07,0.06-0.14,0.11-0.21,0.17c-0.07,0.06-0.14,0.12-0.22,0.17l0,0c-0.56,0.43-1.14,0.82-1.74,1.18l0,0
	c-0.14,0.08-0.28,0.16-0.42,0.24c-0.05,0.03-0.11,0.06-0.16,0.09c-0.47,0.26-0.96,0.5-1.45,0.72c-0.04,0.02-0.09,0.04-0.13,0.06
	c-0.48,0.21-0.97,0.4-1.47,0.56c-0.08,0.03-0.16,0.05-0.24,0.08c-0.14,0.05-0.29,0.09-0.43,0.13c-0.01,0-0.02,0-0.02,0.01l0,0
	c-0.67,0.19-1.35,0.35-2.05,0.46l0,0c-0.07,0.01-0.14,0.02-0.21,0.03c-0.09,0.01-0.18,0.03-0.28,0.04
	c-0.24,0.03-0.47,0.06-0.71,0.09c-0.08,0.01-0.16,0.01-0.24,0.02c-0.19,0.02-0.37,0.03-0.56,0.04c-0.09,0.01-0.18,0.01-0.26,0.01
	c-0.24,0.01-0.49,0.02-0.74,0.02c-0.02,0-0.05,0-0.07,0c-0.05,0-0.09,0-0.14,0c-0.24,0-0.47-0.01-0.7-0.02c-0.05,0-0.1,0-0.15-0.01
	c-0.22-0.01-0.43-0.03-0.64-0.04l0,0c-0.7-0.06-1.4-0.16-2.08-0.3v0c-0.29-0.06-0.58-0.13-0.86-0.2c-0.02,0-0.03-0.01-0.05-0.01
	c-1.22-0.32-2.41-0.76-3.55-1.32l0-0.01c-0.63-0.31-1.24-0.66-1.82-1.04l-0.01,0.01c-1.32-0.86-2.53-1.89-3.6-3.05L9,34.98
	c-0.47-0.52-0.91-1.06-1.32-1.63l-0.01,0.01c-0.93-1.28-1.69-2.68-2.26-4.16l0.01,0c-0.25-0.65-0.47-1.32-0.65-2.01l0,0
	c-0.08-0.31-0.15-0.61-0.21-0.92c-0.01-0.03-0.01-0.05-0.02-0.08c-0.06-0.28-0.11-0.56-0.15-0.84c-0.01-0.04-0.01-0.08-0.02-0.11
	C4.36,25.16,4.34,25.08,4.33,25H0.39C0,25-0.12,24.75,0.13,24.45z M36.82,26.79l3.41,1.03c-0.45,1.52-1.1,2.97-1.92,4.32l-3.04-1.87
	C35.93,29.18,36.45,28.01,36.82,26.79z"/>
</svg>
